<svg xmlns="http://www.w3.org/2000/svg" width="113.149" height="125.186" viewBox="0 0 113.149 125.186">
    <defs>
        <style>
            .cls-1,.cls-2{fill:#00365b;fill-rule:evenodd}.cls-2{fill:#e93739}
        </style>
    </defs>
    <g id="partsoftwarelogo" transform="translate(-243.234 -259.894)">
        <g id="Group_1" data-name="Group 1" transform="translate(243.234 259.894)">
            <path id="Path_1" d="M308.429 217.773c-.961 3.96-2 7.6-2.942 10.328 1.692-14.325-9.105-35.576-18.906-40.866 24.266 20.8 14.637 69.055-20.826 69.055-17.171 0-32.5-15.823-30.3-38.344 5.729 15.262 16.648 21.281 26.57 20.829 28.581-1.3 27.211-44.715-.74-47.414a31.519 31.519 0 0 0-24.886 8.963c-20.646 20.723-12.714 73.348.066 96.329a76.555 76.555 0 0 1-2.315-14.062 17.517 17.517 0 0 1 .057-2.123 56.549 56.549 0 0 0 74.224-62.694z" class="cls-1" data-name="Path 1" transform="translate(-196.039 -171.467)"/>
            <path id="Path_2" d="M216.555 153.01c10.507.861 18.309 3.531 24.124 7.529-4.608-6.209-33.25-23.527-61.127-6.056a56.653 56.653 0 0 0-24.714 62.611 61.609 61.609 0 0 1 2.628-8.081c-.195 8.936.479 20.193 5.05 39.858.042-37.536 4.494-95.147 54.039-95.861z" class="cls-2" data-name="Path 2" transform="translate(-152.9 -146.894)"/>
        </g>
    </g>
</svg>
